<?xml version="1.0" standalone="no"?><!DOCTYPE svg PUBLIC "-//W3C//DTD SVG 1.1//EN" "http://www.w3.org/Graphics/SVG/1.1/DTD/svg11.dtd"><svg t="1708087690422" class="icon" viewBox="0 0 1024 1024" version="1.1" xmlns="http://www.w3.org/2000/svg" p-id="8063" xmlns:xlink="http://www.w3.org/1999/xlink" width="16" height="16"><path d="M315.076923 748.307692m39.384615 0l78.769231 0q39.384615 0 39.384616 39.384616l0 0q0 39.384615-39.384616 39.384615l-78.769231 0q-39.384615 0-39.384615-39.384615l0 0q0-39.384615 39.384615-39.384616Z" fill="#FF8341" p-id="8064"></path><path d="M512 748.307692m39.384615 0l0 0q39.384615 0 39.384616 39.384616l0 0q0 39.384615-39.384616 39.384615l0 0q-39.384615 0-39.384615-39.384615l0 0q0-39.384615 39.384615-39.384616Z" fill="#191C3D" p-id="8065"></path><path d="M630.153846 748.307692m39.384616 0l0 0q39.384615 0 39.384615 39.384616l0 0q0 39.384615-39.384615 39.384615l0 0q-39.384615 0-39.384616-39.384615l0 0q0-39.384615 39.384616-39.384616Z" fill="#191C3D" p-id="8066"></path><path d="M866.461538 78.769231a78.769231 78.769231 0 0 1 78.769231 78.769231v708.923076a78.769231 78.769231 0 0 1-78.769231 78.769231H157.538462a78.769231 78.769231 0 0 1-78.769231-78.769231V157.538462a78.769231 78.769231 0 0 1 78.769231-78.769231h708.923076z m0 78.769231H157.538462v708.923076h708.923076V157.538462z" fill="#191C3D" p-id="8067"></path><path d="M520.388923 473.206154l46.237539 26.387692c114.057846 65.024 190.345846 77.666462 310.153846 22.016l11.736615-5.592615 34.658462 70.734769c-149.267692 73.058462-251.352615 60.888615-383.803077-12.130462l-52.145231-29.735384-4.804923-2.678154a369.979077 369.979077 0 0 0-39.817846-19.456C424.566154 515.505231 409.127385 512 394.436923 512c-76.8 0-156.356923 32.768-238.985846 99.879385l-11.815385 9.846153L92.672 561.624615C192.787692 476.632615 293.533538 433.230769 394.436923 433.230769c25.678769 0 50.845538 5.671385 77.587692 16.462769 15.044923 6.065231 30.247385 13.548308 48.364308 23.512616z" fill="#191C3D" p-id="8068"></path><path d="M315.076923 275.692308m-78.769231 0a78.769231 78.769231 0 1 0 157.538462 0 78.769231 78.769231 0 1 0-157.538462 0Z" fill="#FF8341" p-id="8069"></path></svg>